<svg width="512" height="512" viewBox="0 0 512 512" fill="none" xmlns="http://www.w3.org/2000/svg">
<rect width="512" height="512" fill="#F3F3F3"/>
<path d="M139.885 182.077C136.467 182.077 133.19 183.434 130.774 185.851C128.357 188.267 127 191.544 127 194.962V401.115H191.423V182.077H139.885ZM178.538 362.462H152.769V336.692H178.538V362.462ZM178.538 310.923H152.769V285.154H178.538V310.923ZM178.538 259.385H152.769V233.615H178.538V259.385ZM371.808 79H217.192C213.775 79 210.498 80.3575 208.082 82.7738C205.665 85.1902 204.308 88.4674 204.308 91.8846V401.115H384.692V91.8846C384.692 88.4674 383.335 85.1902 380.918 82.7738C378.502 80.3575 375.225 79 371.808 79ZM281.615 362.462H255.846V336.692H281.615V362.462ZM281.615 310.923H255.846V285.154H281.615V310.923ZM281.615 259.385H255.846V233.615H281.615V259.385ZM281.615 207.846H255.846V182.077H281.615V207.846ZM281.615 156.308H255.846V130.538H281.615V156.308ZM333.154 362.462H307.385V336.692H333.154V362.462ZM333.154 310.923H307.385V285.154H333.154V310.923ZM333.154 259.385H307.385V233.615H333.154V259.385ZM333.154 207.846H307.385V182.077H333.154V207.846ZM333.154 156.308H307.385V130.538H333.154V156.308Z" fill="#DDDDDD"/>
<rect x="112" y="410" width="287" height="22" fill="#DDDDDD"/>
</svg>
