<svg width="512" height="512" viewBox="0 0 512 512" fill="none" xmlns="http://www.w3.org/2000/svg">
<path fill-rule="evenodd" clip-rule="evenodd" d="M255.499 406.442C270.374 406.442 282.433 417.815 282.433 431.851C282.433 445.883 270.374 457.26 255.499 457.26C240.624 457.26 228.565 445.882 228.565 431.851C228.565 417.816 240.624 406.442 255.499 406.442ZM255.499 327.857C277.32 327.857 298.599 334.493 316.373 346.842H316.376C318.607 348.417 320.497 350.403 321.941 352.689C323.384 354.974 324.352 357.516 324.789 360.167C325.225 362.818 325.122 365.528 324.485 368.142C323.848 370.752 322.69 373.215 321.077 375.392C319.464 377.568 317.427 379.413 315.083 380.82C312.738 382.228 310.133 383.171 307.415 383.595C304.697 384.022 301.919 383.923 299.242 383.301C296.564 382.679 294.037 381.548 291.806 379.977C281.184 372.665 268.502 368.742 255.502 368.742C242.503 368.742 229.821 372.665 219.199 379.977C215.601 382.484 211.292 383.834 206.871 383.837C204.129 383.84 201.414 383.318 198.881 382.293C196.349 381.272 194.049 379.768 192.113 377.875L197.011 373.021L192.072 377.841C189.925 375.75 188.27 373.232 187.221 370.454C186.172 367.68 185.755 364.714 185.998 361.766C186.241 358.817 187.138 355.954 188.627 353.378C190.117 350.799 192.164 348.571 194.625 346.842C212.398 334.493 233.677 327.857 255.499 327.857ZM255.464 242.099C299.914 242.099 342.923 257.441 376.839 285.395C381.052 288.882 383.669 293.856 384.114 299.221C384.561 304.586 382.798 309.904 379.21 314.004C375.626 318.104 370.515 320.651 365 321.084C359.486 321.517 354.023 319.801 349.807 316.314C323.437 294.603 290.01 282.69 255.464 282.69C220.919 282.69 187.492 294.603 161.12 316.314C157.382 319.391 152.639 321.072 147.743 321.057C145.003 321.064 142.288 320.545 139.754 319.53C137.22 318.516 134.917 317.026 132.975 315.145L132.932 315.102C130.9 313.131 129.308 310.771 128.258 308.173C127.208 305.574 126.722 302.792 126.831 300.002C126.939 297.212 127.64 294.473 128.889 291.959C130.138 289.445 131.909 287.21 134.089 285.395C168.006 257.441 211.015 242.099 255.464 242.099ZM166.25 157.438C170.768 170.975 178.273 183.374 188.26 193.691C150.95 203.787 116.228 222.231 87.0229 247.926C83.0426 251.445 77.8264 253.337 72.4556 253.209C67.0853 253.081 61.9705 250.944 58.1714 247.239C56.1584 245.276 54.5739 242.934 53.5141 240.357C52.4548 237.78 51.9411 235.019 52.0054 232.243C52.0645 229.479 52.7049 226.756 53.8862 224.243C55.0673 221.73 56.7648 219.48 58.8735 217.632C90.1253 190.118 126.797 169.724 166.25 157.438ZM347.45 158.294C385.875 170.661 421.586 190.748 452.122 217.632C454.233 219.479 455.931 221.729 457.113 224.242C458.291 226.755 458.934 229.479 458.992 232.243C459.094 236.241 457.991 240.181 455.822 243.574C453.649 246.968 450.505 249.665 446.781 251.334C443.053 253.003 438.906 253.57 434.854 252.964C430.802 252.358 427.019 250.607 423.975 247.926C395.386 222.773 361.51 204.568 325.094 194.341C329.324 190.054 333.16 185.359 336.538 180.304C341.131 173.43 344.787 166.028 347.45 158.294Z" fill="url(#paint0_linear_11849_11275)"/>
<path d="M256.996 54C297.398 54.0001 330.151 86.7528 330.151 127.155C330.151 167.558 297.398 200.31 256.996 200.311C216.593 200.311 183.84 167.558 183.84 127.155C183.84 86.7528 216.593 54 256.996 54ZM255.855 157.881C250.825 157.881 246.747 161.959 246.747 166.989C246.747 172.019 250.825 176.097 255.855 176.097C260.885 176.097 264.963 172.019 264.963 166.989C264.963 161.959 260.885 157.881 255.855 157.881ZM255.855 75.9062C250.825 75.9062 246.747 79.9843 246.747 85.0146V130.556C246.747 135.586 250.825 139.664 255.855 139.664C260.885 139.664 264.963 135.586 264.963 130.556V85.0146C264.963 79.9844 260.885 75.9064 255.855 75.9062Z" fill="#F5A623"/>
<defs>
<linearGradient id="paint0_linear_11849_11275" x1="255.498" y1="143.883" x2="255.498" y2="457.261" gradientUnits="userSpaceOnUse">
<stop stop-color="#059FFF"/>
<stop offset="1" stop-color="#0073FF"/>
</linearGradient>
</defs>
</svg>
