<svg width="512" height="512" viewBox="0 0 512 512" fill="none" xmlns="http://www.w3.org/2000/svg">
<g clip-path="url(#clip0_11849_6966)">
<path d="M183.254 248.893H401.33V289.278H183.254V248.893Z" fill="#058BFF"/>
<path d="M183.254 297.354L102.485 337.739V289.278L183.254 248.893V297.354Z" fill="#0073FF"/>
<path d="M102.485 289.278H320.562V466.97H118.639C114.355 466.97 110.246 465.268 107.217 462.238C104.187 459.209 102.485 455.1 102.485 450.816V289.278Z" fill="#059FFF"/>
<path d="M392.366 431.027L320.562 466.969V289.278L401.331 248.893V416.57C401.329 419.575 400.489 422.52 398.906 425.074C397.322 427.628 395.057 429.69 392.366 431.027Z" fill="#058BFF"/>
<path d="M320.562 289.278L298.27 348.643C297.697 350.176 296.672 351.499 295.33 352.436C293.989 353.374 292.395 353.882 290.758 353.893H89.8855C88.5859 353.884 87.3075 353.562 86.159 352.953C85.0106 352.345 84.0259 351.468 83.2886 350.398C82.5512 349.328 82.0831 348.095 81.9239 346.806C81.7647 345.516 81.9191 344.206 82.374 342.989L102.485 289.278H320.562ZM426.45 317.143L360.058 350.258C358.15 351.216 355.941 351.38 353.913 350.714C351.885 350.048 350.203 348.607 349.235 346.704L320.562 289.278L401.331 248.893L430.004 306.32C430.962 308.227 431.126 310.437 430.46 312.465C429.794 314.493 428.352 316.175 426.45 317.143Z" fill="#58BFFF"/>
<path fill-rule="evenodd" clip-rule="evenodd" d="M335.14 216.741C336.707 216.429 338.331 216.59 339.807 217.201C341.283 217.812 342.545 218.847 343.432 220.176C344.32 221.504 344.793 223.066 344.793 224.663C344.792 226.805 343.942 228.859 342.427 230.374C340.913 231.889 338.858 232.74 336.716 232.74C335.119 232.74 333.557 232.266 332.229 231.379C330.901 230.491 329.866 229.229 329.254 227.754C328.643 226.278 328.483 224.654 328.794 223.087C329.106 221.52 329.875 220.081 331.004 218.952C332.134 217.822 333.573 217.053 335.14 216.741ZM173.602 176.356C175.169 176.045 176.793 176.205 178.269 176.816C179.745 177.428 181.007 178.463 181.894 179.791C182.782 181.119 183.255 182.681 183.255 184.278C183.255 186.42 182.404 188.474 180.889 189.989C179.375 191.504 177.32 192.355 175.178 192.355C173.581 192.355 172.019 191.881 170.691 190.994C169.363 190.106 168.328 188.845 167.716 187.369C167.105 185.893 166.945 184.27 167.256 182.703C167.568 181.136 168.337 179.697 169.466 178.567C170.596 177.438 172.035 176.668 173.602 176.356ZM375.525 152.126C377.092 151.814 378.716 151.974 380.192 152.586C381.668 153.197 382.929 154.232 383.816 155.56C384.703 156.889 385.177 158.45 385.177 160.048C385.177 162.19 384.327 164.244 382.812 165.759C381.297 167.273 379.242 168.125 377.1 168.125C375.503 168.125 373.942 167.651 372.614 166.764C371.286 165.876 370.25 164.614 369.638 163.139C369.027 161.663 368.868 160.038 369.179 158.472C369.491 156.905 370.26 155.466 371.389 154.337C372.519 153.207 373.958 152.437 375.525 152.126Z" fill="url(#paint0_linear_11849_6966)"/>
<path d="M243.248 57.0876C243.676 54.6107 246.763 53.7035 248.464 55.5545L281.019 90.9778C281.685 91.7022 282.661 92.0582 283.638 91.9323L330.912 85.8372C333.394 85.5173 335.171 88.1718 333.929 90.3431L310.601 131.128C310.1 132.003 310.068 133.069 310.515 133.973L331.701 176.818C332.821 179.082 330.838 181.641 328.364 181.123L281.525 171.316C280.552 171.112 279.542 171.398 278.82 172.081L244.49 204.58C242.681 206.293 239.692 205.212 239.398 202.738L233.786 155.375C233.669 154.392 233.08 153.528 232.207 153.061L190.017 130.494C187.792 129.303 187.913 126.074 190.222 125.054L233.422 105.969C234.349 105.56 235.01 104.714 235.183 103.715L243.248 57.0876Z" fill="url(#paint1_linear_11849_6966)"/>
</g>
<defs>
<linearGradient id="paint0_linear_11849_6966" x1="276.139" y1="151.971" x2="276.139" y2="232.74" gradientUnits="userSpaceOnUse">
<stop stop-color="#FFB400"/>
<stop offset="1" stop-color="#FFD96A"/>
</linearGradient>
<linearGradient id="paint1_linear_11849_6966" x1="255.074" y1="53.5372" x2="254.772" y2="200.499" gradientUnits="userSpaceOnUse">
<stop stop-color="#FFCB34"/>
<stop offset="1" stop-color="#FFA600"/>
</linearGradient>
<clipPath id="clip0_11849_6966">
<rect width="349" height="422" fill="white" transform="translate(81.863 45)"/>
</clipPath>
</defs>
</svg>
