<svg width="512" height="512" viewBox="0 0 512 512" fill="none" xmlns="http://www.w3.org/2000/svg">
<path fill-rule="evenodd" clip-rule="evenodd" d="M194 100.164C194.984 94.4762 202.073 92.393 205.979 96.6437L280.74 177.991C282.269 179.655 284.511 180.472 286.753 180.183L329.269 174.7C334.031 188.029 341.703 200.198 351.793 210.288C358.282 216.777 365.63 222.265 373.594 226.622L348.672 270.193C347.523 272.202 347.449 274.651 348.474 276.726L397.128 375.116C399.699 380.317 395.144 386.193 389.464 385.004L281.9 362.483C279.667 362.015 277.347 362.671 275.69 364.239L196.853 438.871C192.698 442.805 185.834 440.322 185.161 434.642L172.272 325.874C172.005 323.618 170.651 321.634 168.646 320.562L71.7596 268.736C66.6494 266.003 66.9289 258.588 72.2303 256.245L171.436 212.418C173.565 211.477 175.083 209.535 175.479 207.242L194 100.164Z" fill="url(#paint0_linear_11849_6983)"/>
<path fill-rule="evenodd" clip-rule="evenodd" d="M418.21 72.4071C437.156 72.4282 455.32 79.9639 468.718 93.3612C482.115 106.758 489.651 124.923 489.672 143.869V143.878C489.672 158.013 485.48 171.831 477.627 183.584C469.774 195.337 458.611 204.498 445.552 209.907C432.492 215.317 418.122 216.731 404.259 213.974C390.395 211.216 377.66 204.409 367.665 194.414C357.67 184.419 350.862 171.684 348.104 157.82C345.347 143.956 346.763 129.586 352.172 116.526C357.581 103.467 366.742 92.3051 378.495 84.452C390.248 76.5989 404.066 72.4072 418.201 72.4071H418.21ZM419.122 170.516C414.185 170.516 410.182 174.519 410.182 179.456C410.183 184.392 414.185 188.394 419.122 188.394C424.058 188.394 428.061 184.392 428.061 179.456C428.061 174.519 424.058 170.516 419.122 170.516ZM418.611 98.4061C413.674 98.4063 409.672 102.409 409.672 107.346V152.041C409.672 156.978 413.674 160.98 418.611 160.98C423.547 160.98 427.551 156.978 427.551 152.041V107.346C427.55 102.409 423.547 98.4064 418.611 98.4061Z" fill="#F5282D"/>
<defs>
<linearGradient id="paint0_linear_11849_6983" x1="221.159" y1="92.0114" x2="220.466" y2="429.5" gradientUnits="userSpaceOnUse">
<stop stop-color="#FFCB34"/>
<stop offset="1" stop-color="#FFA600"/>
</linearGradient>
</defs>
</svg>
