<svg width="512" height="512" viewBox="0 0 512 512" fill="none" xmlns="http://www.w3.org/2000/svg">
<path d="M358.451 393.668L391.617 360.509L460.669 429.555L427.51 462.707L358.451 393.668ZM153.218 122.041L120.058 155.199L51 86.1507L84.1671 53L153.218 122.041Z" fill="#2D2D2D"/>
<path d="M372.538 379.615L391.641 360.522L460.707 429.565L441.597 448.661L372.538 379.615Z" fill="#2D2D2D"/>
<path fill-rule="evenodd" clip-rule="evenodd" d="M415.861 273.56C424.13 281.856 428.791 293.079 428.832 304.792C428.873 316.504 424.291 327.759 416.08 336.113L334.3 417.864C325.96 426.198 314.649 430.883 302.856 430.883C291.063 430.883 279.753 426.198 271.413 417.864L236.75 383.21L236.803 383.159L381.145 238.854L415.861 273.56ZM366.191 206C366.355 206 366.519 206.002 366.683 206.006C371.759 206.132 376.597 208.2 380.196 211.796C380.513 212.089 380.793 212.42 381.029 212.782C384.242 216.368 386 221.022 385.963 225.834C385.966 228.425 385.457 230.993 384.47 233.389C383.48 235.784 382.026 237.961 380.196 239.795L237.813 382.141C234.271 385.709 229.495 387.781 224.469 387.938C219.444 388.092 214.55 386.317 210.794 382.974C210.431 382.739 210.1 382.459 209.807 382.141C207.96 380.308 206.493 378.126 205.493 375.723C204.492 373.319 203.977 370.745 203.977 368.14C203.977 365.538 204.493 362.96 205.493 360.56C206.493 358.157 207.96 355.975 209.807 354.141L352.189 211.796C353.234 210.752 354.383 209.837 355.612 209.06C355.885 208.888 356.162 208.723 356.443 208.564C357.005 208.247 357.581 207.957 358.17 207.696C358.464 207.566 358.762 207.443 359.062 207.327C361.165 206.516 363.408 206.063 365.699 206.006C365.863 206.002 366.027 206 366.191 206Z" fill="url(#paint0_linear_11849_11276)"/>
<path d="M153.248 122.056L132.324 142.976L63.2649 73.9274L84.1896 53.0156L153.248 122.056Z" fill="#2D2D2D"/>
<path d="M209.017 84.5515C220.81 84.5515 232.121 89.2346 240.461 97.5701L275.184 132.284L274.926 132.55L130.571 276.853L95.855 242.147C87.5171 233.809 82.8335 222.501 82.8335 210.711C82.8335 198.921 87.5172 187.613 95.855 179.275L177.574 97.5701C185.914 89.2348 197.224 84.5516 209.017 84.5515Z" fill="url(#paint1_linear_11849_11276)"/>
<path d="M141.689 163.948L190.681 114.977L201.413 125.706L152.421 174.677L141.689 163.948Z" fill="white"/>
<path d="M224.774 272.703L257.986 305.907L229.98 333.905L196.767 300.701C193.595 297.528 191.813 293.226 191.813 288.739C191.813 284.253 193.595 279.95 196.767 276.777L200.843 272.703C204.017 269.531 208.321 267.75 212.808 267.75C217.296 267.75 221.6 269.531 224.774 272.703ZM298.803 198.669L332.016 231.873L304.01 259.872L270.79 226.668C267.617 223.495 265.835 219.192 265.835 214.706C265.835 210.22 267.617 205.917 270.79 202.744L274.873 198.662C278.047 195.49 282.351 193.708 286.838 193.708C291.326 193.708 295.629 195.49 298.803 198.662V198.669Z" fill="#FFB400"/>
<path d="M335.894 126.867L372.545 90.2332L383.275 100.962L346.627 137.596L335.894 126.867ZM287.07 64.2226L301.817 60.5803L314.62 112.382L299.881 116.024L287.07 64.2226ZM357.792 173.812L361.435 159.077L413.242 171.877L409.599 186.613L357.792 173.812Z" fill="#FFCB34"/>
<defs>
<linearGradient id="paint0_linear_11849_11276" x1="316.404" y1="195.833" x2="316.404" y2="430.884" gradientUnits="userSpaceOnUse">
<stop stop-color="#059FFF"/>
<stop offset="1" stop-color="#0073FF"/>
</linearGradient>
<linearGradient id="paint1_linear_11849_11276" x1="179.008" y1="75.8575" x2="179.008" y2="276.854" gradientUnits="userSpaceOnUse">
<stop stop-color="#059FFF"/>
<stop offset="1" stop-color="#0073FF"/>
</linearGradient>
</defs>
</svg>
